<svg width="296" height="296" viewBox="0 0 296 296" fill="none" xmlns="http://www.w3.org/2000/svg">
<path d="M148 0.125C118.753 0.125 90.163 8.79772 65.845 25.0464C41.5271 41.2951 22.5736 64.3901 11.3813 91.4107C0.188995 118.431 -2.73942 148.164 2.96637 176.849C8.67216 205.534 22.7559 231.883 43.4366 252.563C64.1173 273.244 90.4661 287.328 119.151 293.034C147.836 298.739 177.569 295.811 204.589 284.619C231.61 273.426 254.705 254.473 270.954 230.155C287.202 205.837 295.875 177.247 295.875 148C295.875 108.781 280.295 71.1685 252.563 43.4366C224.831 15.7046 187.219 0.125 148 0.125ZM232.5 242.207V235.785C232.794 221.382 227.426 207.438 217.552 196.949C207.677 186.46 194.082 180.263 179.687 179.688H116.312C101.93 180.265 88.3493 186.466 78.4922 196.955C68.6351 207.444 63.2895 221.384 63.6056 235.774C63.6056 235.891 63.5 236.007 63.5 236.123V242.302C44.3386 225.198 30.8232 202.678 24.7426 177.723C18.6621 152.769 20.3031 126.556 29.4486 102.555C38.594 78.5531 54.8126 57.8948 75.9576 43.3141C97.1025 28.7334 122.177 20.9178 147.862 20.9017C173.546 20.8857 198.63 28.67 219.794 43.2242C240.957 57.7785 257.201 78.4165 266.377 102.406C275.552 126.396 277.226 152.607 271.177 177.569C265.127 202.532 251.64 225.068 232.5 242.196V242.207Z" fill="#222537"/>
<path d="M148 52.9375C137.555 52.9375 127.344 56.0349 118.659 61.838C109.974 67.6411 103.205 75.8893 99.2076 85.5395C95.2103 95.1898 94.1645 105.809 96.2023 116.053C98.24 126.298 103.27 135.708 110.656 143.094C118.042 150.48 127.452 155.51 137.697 157.548C147.941 159.586 158.56 158.54 168.21 154.542C177.861 150.545 186.109 143.776 191.912 135.091C197.715 126.406 200.812 116.195 200.812 105.75C200.812 91.7433 195.248 78.3102 185.344 68.4059C175.44 58.5017 162.007 52.9375 148 52.9375Z" fill="#222537"/>
</svg>
