<svg height="512" viewBox="0 0 512 512" width="512" xmlns="http://www.w3.org/2000/svg"><g id="Flat"><path d="m488 392h-352l96-104h224z" fill="#eedc9a"/><path d="m184 392h-160l32-104h96z" fill="#eebe33"/><path d="m488 392h-160l32-104h96z" fill="#eebe33"/><path d="m152 288 168-168 88 40-224 232z" fill="#e88604"/><path d="m320 120h-96l-168 168h96z" fill="#eedc9a"/><g fill="#eebe33"><path d="m224 144h32v16h-32z"/><path d="m200 168h32v16h-32z"/><path d="m80 216h.00005a48 48 0 0 0 48-48 48 48 0 0 0 48 48 48 48 0 0 0 -48 48 48 48 0 0 0 -47.99995-48z"/><path d="m352 168a48 48 0 0 0 48-47.99995 48 48 0 0 0 48 48 48 48 0 0 0 -48 48 48 48 0 0 0 -48-48z"/></g></g></svg>