<svg width="30" height="34" viewBox="0 0 30 34" fill="none" xmlns="http://www.w3.org/2000/svg">
<path d="M24.5 11.6667H27.6667C28.0866 11.6667 28.4893 11.8335 28.7863 12.1304C29.0832 12.4274 29.25 12.8301 29.25 13.25V32.25C29.25 32.6699 29.0832 33.0727 28.7863 33.3696C28.4893 33.6665 28.0866 33.8333 27.6667 33.8333H2.33333C1.91341 33.8333 1.51068 33.6665 1.21375 33.3696C0.916815 33.0727 0.75 32.6699 0.75 32.25V13.25C0.75 12.8301 0.916815 12.4274 1.21375 12.1304C1.51068 11.8335 1.91341 11.6667 2.33333 11.6667H5.5V10.0833C5.5 7.56378 6.50089 5.14742 8.28249 3.36582C10.0641 1.58422 12.4804 0.583333 15 0.583333C17.5196 0.583333 19.9359 1.58422 21.7175 3.36582C23.4991 5.14742 24.5 7.56378 24.5 10.0833V11.6667ZM21.3333 11.6667V10.0833C21.3333 8.40363 20.6661 6.79272 19.4783 5.60499C18.2906 4.41726 16.6797 3.75 15 3.75C13.3203 3.75 11.7094 4.41726 10.5217 5.60499C9.33393 6.79272 8.66667 8.40363 8.66667 10.0833V11.6667H21.3333ZM13.4167 21.1667V24.3333H16.5833V21.1667H13.4167ZM7.08333 21.1667V24.3333H10.25V21.1667H7.08333ZM19.75 21.1667V24.3333H22.9167V21.1667H19.75Z" fill="#476F8B"/>
</svg>
