<svg width="24" height="23" viewBox="0 0 24 23" fill="none" xmlns="http://www.w3.org/2000/svg">
<path d="M4 0.5H23.5V22.5H4C2.067 22.5 0.5 20.933 0.5 19V4C0.5 2.067 2.067 0.5 4 0.5Z" stroke="white"/>
<path d="M8.11914 11.5488H6.11523V15H4.98438V6.46875H7.80859C8.76953 6.46875 9.50781 6.6875 10.0234 7.125C10.543 7.5625 10.8027 8.19922 10.8027 9.03516C10.8027 9.56641 10.6582 10.0293 10.3691 10.4238C10.084 10.8184 9.68555 11.1133 9.17383 11.3086L11.1777 14.9297V15H9.9707L8.11914 11.5488ZM6.11523 10.6289H7.84375C8.40234 10.6289 8.8457 10.4844 9.17383 10.1953C9.50586 9.90625 9.67188 9.51953 9.67188 9.03516C9.67188 8.50781 9.51367 8.10352 9.19727 7.82227C8.88477 7.54102 8.43164 7.39844 7.83789 7.39453H6.11523V10.6289ZM15.9062 13.3184C15.9062 13.0254 15.7949 12.7988 15.5723 12.6387C15.3535 12.4746 14.9688 12.334 14.418 12.2168C13.8711 12.0996 13.4355 11.959 13.1113 11.7949C12.791 11.6309 12.5527 11.4355 12.3965 11.209C12.2441 10.9824 12.168 10.7129 12.168 10.4004C12.168 9.88086 12.3867 9.44141 12.8242 9.08203C13.2656 8.72266 13.8281 8.54297 14.5117 8.54297C15.2305 8.54297 15.8125 8.72852 16.2578 9.09961C16.707 9.4707 16.9316 9.94531 16.9316 10.5234H15.8418C15.8418 10.2266 15.7148 9.9707 15.4609 9.75586C15.2109 9.54102 14.8945 9.43359 14.5117 9.43359C14.1172 9.43359 13.8086 9.51953 13.5859 9.69141C13.3633 9.86328 13.252 10.0879 13.252 10.3652C13.252 10.627 13.3555 10.8242 13.5625 10.957C13.7695 11.0898 14.1426 11.2168 14.6816 11.3379C15.2246 11.459 15.6641 11.6035 16 11.7715C16.3359 11.9395 16.584 12.1426 16.7441 12.3809C16.9082 12.6152 16.9902 12.9023 16.9902 13.2422C16.9902 13.8086 16.7637 14.2637 16.3105 14.6074C15.8574 14.9473 15.2695 15.1172 14.5469 15.1172C14.0391 15.1172 13.5898 15.0273 13.1992 14.8477C12.8086 14.668 12.502 14.418 12.2793 14.0977C12.0605 13.7734 11.9512 13.4238 11.9512 13.0488H13.0352C13.0547 13.4121 13.1992 13.7012 13.4688 13.916C13.7422 14.127 14.1016 14.2324 14.5469 14.2324C14.957 14.2324 15.2852 14.1504 15.5312 13.9863C15.7812 13.8184 15.9062 13.5957 15.9062 13.3184ZM18.4258 14.4316C18.4258 14.2441 18.4805 14.0879 18.5898 13.9629C18.7031 13.8379 18.8711 13.7754 19.0938 13.7754C19.3164 13.7754 19.4844 13.8379 19.5977 13.9629C19.7148 14.0879 19.7734 14.2441 19.7734 14.4316C19.7734 14.6113 19.7148 14.7617 19.5977 14.8828C19.4844 15.0039 19.3164 15.0645 19.0938 15.0645C18.8711 15.0645 18.7031 15.0039 18.5898 14.8828C18.4805 14.7617 18.4258 14.6113 18.4258 14.4316Z" fill="white"/>
<path d="M3 18.5H23.5V21.5H3C2.17157 21.5 1.5 20.8284 1.5 20C1.5 19.1716 2.17157 18.5 3 18.5Z" stroke="white"/>
</svg>
