<?xml version="1.0" encoding="UTF-8" standalone="no"?>
<svg
   xmlns:dc="http://purl.org/dc/elements/1.1/"
   xmlns:cc="http://creativecommons.org/ns#"
   xmlns:rdf="http://www.w3.org/1999/02/22-rdf-syntax-ns#"
   xmlns:svg="http://www.w3.org/2000/svg"
   xmlns="http://www.w3.org/2000/svg"
   xmlns:sodipodi="http://sodipodi.sourceforge.net/DTD/sodipodi-0.dtd"
   xmlns:inkscape="http://www.inkscape.org/namespaces/inkscape"
   version="1.1"
   id="svg9019"
   viewBox="0 0 1528.8403 1062.9921"
   height="300mm"
   width="431.47272mm"
   inkscape:version="0.91 r13725"
   sodipodi:docname="silverbricks.svg">
  <sodipodi:namedview
     pagecolor="#ffffff"
     bordercolor="#666666"
     borderopacity="1"
     objecttolerance="10"
     gridtolerance="10"
     guidetolerance="10"
     inkscape:pageopacity="0"
     inkscape:pageshadow="2"
     inkscape:window-width="1916"
     inkscape:window-height="1035"
     id="namedview9674"
     showgrid="false"
     inkscape:zoom="0.45471497"
     inkscape:cx="764.42017"
     inkscape:cy="765.48512"
     inkscape:window-x="4"
     inkscape:window-y="1"
     inkscape:window-maximized="1"
     inkscape:current-layer="g10236" />
  <defs
     id="defs9021" />
  <metadata
     id="metadata9024">
    <rdf:RDF>
      <cc:Work
         rdf:about="">
        <dc:format>image/svg+xml</dc:format>
        <dc:type
           rdf:resource="http://purl.org/dc/dcmitype/StillImage" />
        <dc:title></dc:title>
      </cc:Work>
    </rdf:RDF>
  </metadata>
  <g
     transform="translate(655.71992,-52.135664)"
     id="layer1">
    <g
       id="g10236">
      <g
         id="g23077">
        <path
           style="fill:#d6d6d8;fill-opacity:1;fill-rule:evenodd;stroke:none;stroke-width:1px;stroke-linecap:butt;stroke-linejoin:miter;stroke-opacity:1"
           d="m -427.00522,571.9303 -79.17047,48.38196 -28.58934,21.9918 -32.9877,173.73521 402.44992,101.16227 10.9959,2.19918 46.18277,-32.9877 151.74341,43.9836 250.70651,79.17048 37.38605,4.3984 466.22615,-301.28769 2.1992,-19.79262 -68.1746,-171.53602 -10.9959,-15.39426 -24.191,-6.59754 -178.1336,-26.39016 c -37.57862,-32.7999 -36.38429,3.19801 -6.5975,-30.78852 l 96.7639,-68.17457 -15.3942,-28.58934 -59.3779,-149.54423 -8.7967,-13.19508 -21.9918,-4.39836 -345.27126,35.18688 -380.45811,175.93438 -32.9877,19.79262 -59.37785,120.95489 -52.78032,41.78442 z"
           id="path10216"
           inkscape:connector-curvature="0"
           sodipodi:nodetypes="cccccccccccccccccccccccccccc" />
        <path
           style="fill:#525252;fill-opacity:1"
           d="M 117.17484,976.91742 C 13.324757,956.39109 -82.26457,937.52955 -95.24581,935.00293 c -16.86605,-3.28273 -23.60229,-8.79261 -23.60229,-19.30524 0,-11.78113 54.931375,-174.59498 61.976574,-183.69539 2.971478,-3.83832 259.643456,37.41579 275.866076,44.33904 10.37086,4.42598 26.87243,38.80558 56.28242,117.25917 42.85154,114.31009 45.42644,122.96129 36.16293,121.49799 -2.99569,-0.4729 -90.41493,-17.65467 -194.26506,-38.18108 z m 214.23622,31.75508 c 0,-4.0076 102.12533,-72.19006 226.94514,-151.51672 124.81977,-79.3267 229.83634,-146.98001 233.37007,-150.34078 6.66653,-6.34037 2.35101,-19.61317 -41.81595,-128.60872 -14.18293,-35.00092 -23.09625,-63.63804 -19.80733,-63.63804 3.28893,0 16.60788,26.90153 29.59766,59.78122 12.98969,32.87963 30.23663,74.74584 38.32656,93.03601 8.5205,19.26366 11.99301,36.05369 8.2537,39.90744 -8.50468,8.76492 -466.23692,308.66599 -471.10987,308.66599 -2.06803,0 -3.75998,-3.2789 -3.75998,-7.2864 z M -362.13331,884.35302 c -103.85008,-20.52632 -199.43941,-39.38786 -212.42065,-41.91448 -16.86605,-3.28273 -23.60229,-8.79261 -23.60229,-19.30525 0,-11.78112 54.93138,-174.59502 61.97657,-183.69543 2.97148,-3.83832 259.64346,37.4158 275.86608,44.33908 10.37086,4.42595 26.87243,38.80554 56.28242,117.25913 42.85154,114.31012 45.42645,122.96126 36.16293,121.49799 -2.99569,-0.47284 -90.41493,-17.65467 -194.26506,-38.18104 z m 215.59788,30.84563 c 1.74753,-5.56829 7.46655,-11.64286 12.70893,-13.49902 5.44671,-1.92841 8.17004,0.96423 6.35447,6.74951 -1.74748,5.56829 -7.4665,11.64282 -12.70893,13.49897 -5.44666,1.92842 -8.17003,-0.96422 -6.35447,-6.74946 z M 90.480936,735.45696 c -62.612434,-9.06159 -115.997494,-18.79775 -118.633484,-21.63592 -2.635896,-2.83817 2.702596,-9.421 11.863321,-14.62843 13.0771171,-7.43377 28.424864,-7.48643 71.428907,-0.24522 97.84516,16.47563 82.10896,22.5478 280.95323,-108.41182 l 182.60675,-120.26555 89.7274,14.38823 c 49.35002,7.91353 94.62929,15.36164 100.62067,16.55137 5.99133,1.18972 -92.82508,58.48526 -219.59219,127.32326 C 304.77055,728.82205 253.54025,753.51805 231.64583,752.8128 216.61766,752.32838 153.09343,744.51859 90.480936,735.45705 Z M -78.90575,652.94195 c -103.85013,-20.52632 -199.4394,-39.38787 -212.42065,-41.91449 -16.86609,-3.28273 -23.60233,-8.79261 -23.60233,-19.30524 0,-11.78113 54.93142,-174.59498 61.97657,-183.69539 2.97153,-3.83836 259.6435061,37.41575 275.866128,44.33904 10.370857,4.42599 26.872422,38.80558 56.282372,117.25917 42.85154,114.31012 45.42644,122.96126 36.16293,121.49795 -2.99564,-0.47284 -90.414935,-17.65463 -194.26502,-38.18104 z m -312.00517,-10.04943 c -63.75842,-9.06159 -115.48079,-19.65512 -114.93853,-23.54112 0.8303,-5.95028 176.86385,-97.06947 187.52896,-97.06947 1.97267,0 -1.47191,12.8596 -7.65467,28.5769 -12.97437,32.9823 -8.25769,69.21058 9.7356,74.77838 10.77341,3.33372 94.72911,20.06398 100.68496,20.06398 1.26351,0 2.2973,3.47116 2.2973,7.71369 0,10.98918 -45.08479,8.31882 -177.65362,-10.52236 z M 498.4427,449.34628 c 0,-1.93181 22.87607,-17.94772 50.83571,-35.59081 27.95964,-17.64305 50.83571,-34.73 50.83571,-37.97093 0,-6.19564 -4.70782,-18.54262 -46.34742,-121.55373 -14.14833,-35.00092 -23.0725,-63.63803 -19.83168,-63.63803 4.52118,0 54.06504,115.1563 78.44976,182.3431 1.7536,4.83164 -20.98926,24.79083 -50.5397,44.35378 -51.07036,33.80948 -63.40238,40.04462 -63.40238,32.05662 z m -606.12605,-37.86479 c -63.75842,-9.06159 -115.46349,-19.61295 -114.90013,-23.44742 0.56356,-3.83456 98.48163,-55.11824 217.5959701,-113.96378 C 114.12683,215.22471 224.37442,160.37409 240.00724,152.18004 c 28.35287,-14.86129 28.72106,-14.85039 148.876,4.41748 66.24905,10.62362 123.54234,20.24134 127.31842,21.37256 3.77608,1.13127 -96.6745,58.23728 -223.22342,126.90218 -184.29079,99.99541 -235.52767,124.6701 -257.413,123.96507 -15.028213,-0.48442 -79.490078,-8.29426 -143.24859,-17.35584 z"
           id="path9586"
           inkscape:connector-curvature="0" />
        <path
           style="fill:#dfdfdf;fill-rule:evenodd;stroke:none;stroke-width:1px;stroke-linecap:butt;stroke-linejoin:miter;stroke-opacity:1;fill-opacity:1"
           d="m 670.38558,578.52784 c -38.66509,32.95901 -86.80471,43.12651 -132.8397,53.7867 -40.64891,42.82738 -102.1667,51.66452 -141.74961,93.74402 -20.67875,45.84674 -79.37882,72.14435 -103.77497,100.37913 43.99173,9.79248 113.11079,25.69752 133.41576,-30.05204 11.50295,-50.73192 62.93817,-54.17572 104.37542,-59.5522 73.21757,-19.26181 119.37125,-84.52333 170.53387,-135.40858 14.87611,-24.66836 -15.49304,-22.32902 -29.96077,-22.89703 z"
           id="path10218"
           inkscape:connector-curvature="0" />
        <path
           inkscape:connector-curvature="0"
           id="path10225"
           d="m 498.84955,259.64676 c -38.66509,32.95901 -86.80471,43.12651 -132.8397,53.7867 -40.64891,42.82738 -102.1667,51.66452 -141.74961,93.74402 -20.67875,45.84674 -79.37882,72.14435 -103.77497,100.37913 43.99173,9.79248 113.11079,25.69752 133.41576,-30.05204 11.50295,-50.73192 62.93817,-54.17572 104.37542,-59.5522 73.21757,-19.26181 119.37125,-84.52333 170.53387,-135.40858 14.87611,-24.66836 -15.49304,-22.32902 -29.96077,-22.89703 z"
           style="fill:#dfdfdf;fill-opacity:1;fill-rule:evenodd;stroke:none;stroke-width:1px;stroke-linecap:butt;stroke-linejoin:miter;stroke-opacity:1" />
        <path
           style="fill:#dfdfdf;fill-opacity:1;fill-rule:evenodd;stroke:none;stroke-width:1px;stroke-linecap:butt;stroke-linejoin:miter;stroke-opacity:1"
           d="m -123.5184,673.09258 c -9.89321,11.63077 -29.46404,9.00566 -37.30569,21.42559 -5.73567,17.14328 -22.79705,21.3475 -36.12745,30.14359 -9.06365,6.55307 7.48106,18.05031 11.46523,18.98176 21.85797,-2.52745 35.75908,-23.52664 57.70982,-27.69444 16.22332,-7.41799 37.015471,-12.02522 43.34866,-31.25412 3.148122,-9.28757 17.854422,-20.112 -1.633001,-16.38988 -12.655969,0.18615 -24.752479,5.24186 -37.457569,4.7875 z"
           id="path10227"
           inkscape:connector-curvature="0" />
      </g>
    </g>
  </g>
</svg>
